<svg width="1000" height="1000" viewBox="0 0 1000 1000" fill="none" xmlns="http://www.w3.org/2000/svg">
<g clip-path="url(#clip0_6_18)">
<path d="M202.969 621.344L812.969 417.656C800.781 341.406 792.094 290.469 782.031 251.594C771.188 209.781 762.594 198.594 759.219 194.719C747.457 181.257 732.813 170.618 716.375 163.594C711.625 161.563 698.313 156.844 655.25 159.438C609.688 162.188 549.875 171.5 455.156 186.5C360.469 201.5 300.688 211.156 256.531 222.594C214.75 233.438 203.531 242.063 199.656 245.438C186.219 257.219 175.594 271.844 168.563 288.281C166.531 293.031 161.813 306.344 164.406 349.438C167.156 395 176.469 454.844 191.469 549.563C195.656 576.125 199.438 599.875 202.969 621.344V621.344Z" fill="url(#paint0_linear_6_18)"/>
<path fill-rule="evenodd" clip-rule="evenodd" d="M34.7813 574.375C5.78126 391.125 -8.74999 299.5 22.6875 225.937C39.0756 187.571 63.8988 153.391 95.3125 125.937C155.531 73.3437 247.125 58.8437 430.313 29.8125C613.563 0.749983 705.156 -13.75 778.75 17.6875C817.095 34.0808 851.254 58.904 878.687 90.3125C931.312 150.562 945.812 242.187 974.812 425.469C1003.84 608.719 1018.34 700.375 986.906 773.906C970.529 812.27 945.716 846.451 914.312 873.906C854.094 926.531 762.469 941.031 579.25 970.062C396.062 999.094 304.438 1013.59 230.906 982.156C192.561 965.762 158.403 940.939 130.969 909.531C78.3438 849.281 63.8438 757.656 34.8125 574.375H34.7813ZM357.938 899.813C407 896.844 470.187 886.938 563.719 872.125C657.281 857.313 720.375 847.188 768 834.844C814.094 822.875 835.344 811.219 849.062 799.219C869.246 781.568 885.193 759.597 895.719 734.937C902.906 718.187 907.437 694.375 904.562 646.812C901.594 597.75 891.687 534.531 876.875 440.969C862.062 347.406 851.969 284.25 839.625 236.656C827.656 190.531 815.969 169.281 804 155.562C786.363 135.371 764.402 119.413 739.75 108.875C723 101.687 699.187 97.1562 651.625 100.031C602.562 103 539.406 112.906 445.844 127.719C352.313 142.562 289.188 152.656 241.594 165C195.469 176.969 174.25 188.656 160.531 200.625C140.337 218.273 124.38 240.244 113.844 264.906C106.688 281.656 102.156 305.469 105.031 353.031C108 402.125 117.875 465.313 132.719 558.875C147.531 652.438 157.625 715.594 169.969 763.188C181.938 809.313 193.594 830.563 205.594 844.281C223.232 864.472 245.192 880.43 269.844 890.969C286.594 898.156 310.375 902.688 357.969 899.813H357.938Z" fill="url(#paint1_linear_6_18)"/>
</g>
<defs>
<linearGradient id="paint0_linear_6_18" x1="396.563" y1="2.95508e-05" x2="555.281" y2="991.656" gradientUnits="userSpaceOnUse">
<stop stop-color="#66E3FF"/>
<stop offset="1" stop-color="#7064F9"/>
</linearGradient>
<linearGradient id="paint1_linear_6_18" x1="396.563" y1="-2.06853e-05" x2="555.281" y2="991.656" gradientUnits="userSpaceOnUse">
<stop stop-color="#66E3FF"/>
<stop offset="1" stop-color="#7064F9"/>
</linearGradient>
<clipPath id="clip0_6_18">
<rect width="1000" height="1000" fill="white"/>
</clipPath>
</defs>
</svg>
