<svg width="1000" height="834" viewBox="0 0 1000 834" fill="none" xmlns="http://www.w3.org/2000/svg">
<g clip-path="url(#clip0_1_2)">
<path d="M488.487 116.197C312.348 121.799 259.997 247.7 248 315.907C263.632 290.625 312.893 235.151 385.421 235.151C469.946 235.151 534.294 329.55 573.558 359.015C621.259 394.814 717.112 442.08 842.947 403.759C943.286 373.202 989.821 266.616 1000 216.052C951.466 282.077 877.848 321.734 786.779 274.983C724.067 242.789 677.169 110.196 488.487 116.197Z" fill="#07B6D5"/>
<path d="M239.168 415.197C63.2625 420.799 10.9811 546.7 -1 614.907C14.6118 589.625 63.8071 534.151 136.239 534.151C220.651 534.151 284.914 628.55 324.125 658.015C371.763 693.814 467.488 741.08 593.156 702.759C693.362 672.202 739.835 565.616 750 515.052C701.531 581.077 628.01 620.734 537.062 573.983C474.434 541.79 427.598 409.196 239.168 415.197Z" fill="#07B6D5"/>
</g>
<defs>
<clipPath id="clip0_1_2">
<rect width="1000" height="834" fill="white"/>
</clipPath>
</defs>
</svg>
