<svg width="1000" height="808" viewBox="0 0 1000 808" fill="none" xmlns="http://www.w3.org/2000/svg">
<g clip-path="url(#clip0_1_10)">
<path d="M0 209H1000V542.429H500V598H277.778V542.429H0V209ZM55.5556 486.857H166.667V320.143H222.222V486.857H277.778V264.571H55.5556V486.857ZM333.333 264.571V542.429H444.444V486.857H555.556V264.571H333.333ZM444.444 320.143H500V431.286H444.444V320.143ZM611.111 264.571V486.857H722.222V320.143H777.778V486.857H833.333V320.143H888.889V486.857H944.444V264.571H611.111Z" fill="#CB3837"/>
<path d="M55.5555 486.857H166.667V320.143H222.222V486.857H277.778V264.571H55.5555V486.857Z" fill="white"/>
<path d="M333.333 264.571V542.429H444.444V486.857H555.556V264.571H333.333ZM500 431.286H444.444V320.143H500V431.286Z" fill="white"/>
<path d="M611.111 264.571V486.857H722.222V320.143H777.778V486.857H833.333V320.143H888.889V486.857H944.444V264.571H611.111Z" fill="white"/>
</g>
<defs>
<clipPath id="clip0_1_10">
<rect width="1000" height="389" fill="white" transform="translate(0 209)"/>
</clipPath>
</defs>
</svg>
